<svg width="48" height="48" viewBox="0 0 48 48" fill="none" xmlns="http://www.w3.org/2000/svg">
<path d="M33.5222 20.9944C34.5078 20.9971 35.4841 20.8043 36.3946 20.4271C37.3051 20.0499 38.1317 19.4958 38.8266 18.7969L46.0453 11.5828C46.6163 11.0119 46.6688 10.0828 46.125 9.48377C45.9885 9.33327 45.8229 9.21206 45.6381 9.12751C45.4533 9.04296 45.2533 8.99684 45.0502 8.99193C44.8471 8.98702 44.645 9.02343 44.4564 9.09895C44.2678 9.17448 44.0965 9.28753 43.9528 9.43127L37.5188 15.8606C37.3027 16.0764 37.0099 16.1976 36.7046 16.1976C36.3992 16.1976 36.1064 16.0764 35.8903 15.8606C35.4413 15.4125 35.4657 14.655 35.9138 14.2069L42.3197 7.80096C42.4633 7.65736 42.5762 7.48609 42.6517 7.29755C42.7271 7.109 42.7635 6.9071 42.7586 6.70409C42.7537 6.50107 42.7076 6.30117 42.6231 6.11649C42.5387 5.93181 42.4176 5.7662 42.2672 5.62971C41.9958 5.38349 41.6418 5.24801 41.2753 5.25002C40.86 5.25031 40.4617 5.41554 40.1682 5.7094L33.7678 12.1088C33.5518 12.3245 33.259 12.4457 32.9536 12.4457C32.6483 12.4457 32.3554 12.3245 32.1394 12.1088C31.6913 11.6606 31.7147 10.9031 32.1628 10.455L38.5688 4.05096C38.7124 3.90736 38.8253 3.73609 38.9007 3.54755C38.9762 3.359 39.0125 3.1571 39.0076 2.95409C39.0027 2.75107 38.9566 2.55117 38.8722 2.36649C38.7877 2.18181 38.6666 2.0162 38.5163 1.87971C38.2448 1.63349 37.8909 1.49801 37.5244 1.50002C37.1091 1.50051 36.7109 1.66572 36.4172 1.9594L29.2032 9.17346C28.5042 9.86849 27.9501 10.6953 27.5729 11.606C27.1957 12.5166 27.0029 13.4931 27.0057 14.4788V15.2503C27.0058 15.4476 26.9671 15.643 26.8916 15.8252C26.8162 16.0075 26.7055 16.1731 26.566 16.3125L23.2275 19.6519C23.1927 19.6868 23.1513 19.7144 23.1058 19.7333C23.0603 19.7522 23.0115 19.7619 22.9622 19.7619C22.9129 19.7619 22.8641 19.7522 22.8186 19.7333C22.7731 19.7144 22.7317 19.6868 22.6969 19.6519L6.45191 3.40596C6.17153 3.12526 5.79137 2.96708 5.39463 2.96602C4.99789 2.96497 4.6169 3.12113 4.33503 3.40033C2.91472 4.80752 2.15628 6.79408 2.15628 9.1444C2.14691 13.0256 4.18691 17.4881 7.48034 20.7769L15.4913 28.7878C16.6299 29.9241 18.1727 30.5624 19.7813 30.5625C20.2941 30.5627 20.8048 30.4972 21.301 30.3675C21.4255 30.3349 21.5538 30.3182 21.6825 30.3178C22.0591 30.3179 22.4217 30.4602 22.6978 30.7163L23.7657 31.7025C24.0411 31.9839 24.1958 32.3616 24.1969 32.7553V33.2747C24.1942 34.4554 24.6582 35.5893 25.4878 36.4294L33.93 45.0141L33.9385 45.0235C34.8755 45.9603 36.1463 46.4866 37.4713 46.4865C38.7963 46.4864 40.0671 45.96 41.0039 45.023C41.9408 44.086 42.4671 42.8152 42.467 41.4902C42.4669 40.1651 41.9405 38.8944 41.0035 37.9575L28.3491 25.3031C28.3142 25.2683 28.2866 25.227 28.2677 25.1814C28.2488 25.1359 28.2391 25.0871 28.2391 25.0378C28.2391 24.9886 28.2488 24.9398 28.2677 24.8942C28.2866 24.8487 28.3142 24.8073 28.3491 24.7725L31.6875 21.4341C31.8269 21.2947 31.9923 21.1841 32.1744 21.1086C32.3565 21.0332 32.5517 20.9944 32.7488 20.9944H33.5222Z" fill="#263238"/>
<g clip-path="url(#clip0_532_736)">
<path d="M46.7871 38.2652C47.1533 37.842 47.1533 37.1548 46.7871 36.7316L42.0996 31.3149C41.7334 30.8918 41.1387 30.8918 40.7725 31.3149C40.4063 31.7381 40.4063 32.4254 40.7725 32.8485L43.8633 36.4168H34.875C34.3564 36.4168 33.9375 36.9009 33.9375 37.5001C33.9375 38.0993 34.3564 38.5834 34.875 38.5834H43.8633L40.7754 42.1517C40.4092 42.5748 40.4092 43.2621 40.7754 43.6853C41.1416 44.1084 41.7363 44.1084 42.1025 43.6853L46.79 38.2686L46.7871 38.2652Z" fill="#91C788"/>
</g>
<path d="M19.7813 33.5623C17.3797 33.5574 15.077 32.6058 13.3725 30.9139L12.0732 29.6145C11.9326 29.4743 11.7421 29.3955 11.5435 29.3955C11.3449 29.3955 11.1544 29.4743 11.0138 29.6145L3.04503 37.542C1.62472 38.9623 1.11753 41.053 1.82065 43.1005C1.86001 43.2158 1.90666 43.3286 1.96034 43.438C2.90628 45.3748 4.7419 46.4998 6.75003 46.4998C7.44062 46.5015 8.12469 46.3662 8.7626 46.1016C9.40051 45.8371 9.97959 45.4486 10.4663 44.9586L21.0938 34.2805C21.1385 34.2348 21.1728 34.18 21.1941 34.1197C21.2155 34.0595 21.2235 33.9954 21.2175 33.9317V33.9073C21.2134 33.8489 21.1974 33.7919 21.1706 33.7398C21.1438 33.6876 21.1067 33.6415 21.0616 33.6041C21.0165 33.5667 20.9643 33.5388 20.9081 33.5221C20.8519 33.5054 20.7929 33.5003 20.7347 33.507C20.4181 33.5421 20.0998 33.5606 19.7813 33.5623Z" fill="#263238"/>
<defs>
<clipPath id="clip0_532_736">
<rect width="13" height="15" fill="white" transform="matrix(0 1 -1 0 48 31)"/>
</clipPath>
</defs>
</svg>
